<svg xmlns="http://www.w3.org/2000/svg" viewBox="0 0 180 180" width="180" height="180">
  <!-- Background Circle -->
  <circle cx="90" cy="90" r="85" fill="#4B56D2" />
  
  <!-- Sound Waves (Human Side - Left) -->
  <path d="M30,90 Q40,60 50,90 Q60,120 70,90" fill="none" stroke="#FFFFFF" stroke-width="4" stroke-linecap="round" />
  <path d="M25,90 Q40,50 55,90 Q70,130 85,90" fill="none" stroke="#FFFFFF" stroke-width="3" stroke-linecap="round" opacity="0.7" />
  <path d="M20,90 Q40,40 60,90 Q80,140 100,90" fill="none" stroke="#FFFFFF" stroke-width="2" stroke-linecap="round" opacity="0.5" />
  
  <!-- Sound Waves (AI Side - Right) -->
  <path d="M110,90 L120,60 L130,90 L140,120 L150,90" fill="none" stroke="#FFFFFF" stroke-width="4" stroke-linecap="round" />
  <path d="M95,90 L110,50 L125,90 L140,130 L155,90" fill="none" stroke="#FFFFFF" stroke-width="3" stroke-linecap="round" opacity="0.7" />
  <path d="M80,90 L100,40 L120,90 L140,140 L160,90" fill="none" stroke="#FFFFFF" stroke-width="2" stroke-linecap="round" opacity="0.5" />
  
  <!-- Dividing Line -->
  <line x1="90" y1="30" x2="90" y2="150" stroke="#FFFFFF" stroke-width="3" stroke-dasharray="6,4" />
  
  <!-- Human Icon (Left) -->
  <circle cx="55" cy="55" r="12" fill="#FFFFFF" />
  <path d="M40,85 Q55,100 70,85" fill="none" stroke="#FFFFFF" stroke-width="3" stroke-linecap="round" />
  
  <!-- Robot/AI Icon (Right) -->
  <rect x="110" y="45" width="25" height="20" rx="4" fill="#FFFFFF" />
  <circle cx="118" cy="52" r="3" fill="#4B56D2" />
  <circle cx="127" cy="52" r="3" fill="#4B56D2" />
  <rect x="115" y="65" width="15" height="5" fill="#FFFFFF" />
  <line x1="115" y1="75" x2="120" y2="85" stroke="#FFFFFF" stroke-width="3" stroke-linecap="round" />
  <line x1="130" y1="75" x2="125" y2="85" stroke="#FFFFFF" stroke-width="3" stroke-linecap="round" />
  
  <!-- App Name -->
  <text x="90" y="165" font-family="Arial, sans-serif" font-size="16" font-weight="bold" text-anchor="middle" fill="#FFFFFF">Voice Analyzer</text>
</svg>
